<svg xmlns="http://www.w3.org/2000/svg" xmlns:xlink="http://www.w3.org/1999/xlink" width="20" height="20" viewBox="0 0 20 20">
  <defs>
    <path id="linkedin-a" d="M5.27014006,18 L1.98648905,18 L1.98648905,7.13388577 L5.27014006,7.13388577 L5.27014006,18 Z M3.53942308,5.77562149 L3.51542238,5.77562149 C3.00452753,5.81370249 2.50166136,5.63195882 2.13315998,5.27605047 C1.75770106,4.91311932 1.54701494,4.41241732 1.55003191,3.89022978 C1.55003191,2.81730767 2.34294385,2.00572698 3.56253486,2.00572698 C4.07591601,1.96476962 4.58236629,2.14490605 4.95457533,2.50085342 C5.33147518,2.85908674 5.54659254,3.36310234 5.54748146,3.89022978 C5.54748146,4.94448464 4.77323673,5.77562149 3.53853417,5.77562149 L3.53942308,5.77562149 Z M18.4394118,18 L14.6864138,18 L14.6864138,12.3784926 C14.6864138,10.9286699 14.1041747,9.90374931 12.8099148,9.90374931 C11.9992246,9.90374931 11.2809815,10.4397659 11.0267519,11.2326793 C10.9485274,11.5206883 10.920971,11.8193642 10.9467495,12.1171512 L10.9467495,18 L7.27819844,18 C7.27819844,18 7.32531092,8.04235834 7.27819844,7.13921927 L10.9760837,7.13921927 L10.9760837,8.85927253 C11.1956457,8.11524949 12.3823468,7.05210546 14.2597347,7.05210546 C16.6046918,7.05210546 18.4394118,8.61304268 18.4394118,11.9767024 L18.4394118,18 Z"/>
  </defs>
  <g fill="none" fill-rule="evenodd">
    <use fill="#FFF" fill-rule="nonzero" xlink:href="#linkedin-a"/>
  </g>
</svg>
