<svg xmlns="http://www.w3.org/2000/svg" xmlns:xlink="http://www.w3.org/1999/xlink" width="20" height="20" viewBox="0 0 20 20">
  <defs>
    <path id="twitter-a" d="M19,4.70168826 C18.3250622,4.99500178 17.610589,5.18726657 16.8796,5.27228826 C17.6466095,4.8227754 18.2227845,4.1083185 18.4996,3.26348826 C17.7735995,3.68795289 16.9808533,3.98618368 16.1551,4.14548826 C15.1089433,3.05841614 13.5116126,2.70728032 12.106,3.25538826 C10.7064141,3.79180528 9.77894855,5.13155632 9.7696,6.63038826 C9.7696,6.90938826 9.8011,7.18658826 9.865,7.45748826 C6.90670573,7.31653255 4.14366482,5.9394207 2.2501,3.66218826 C1.27280309,5.32597465 1.777123,7.46417935 3.3949,8.51588826 C2.80885518,8.49821479 2.23515182,8.34315159 1.72,8.06318826 L1.72,8.10728826 C1.7209,9.83798826 2.962,11.3292883 4.6846,11.6712883 C4.36694009,11.7575975 4.03907336,11.8005865 3.7099,11.7990883 C3.47169782,11.80063 3.23390064,11.7792312 2.9998,11.7351883 C3.4822,13.2174883 4.8691,14.2326883 6.4504,14.2605883 C4.89701964,15.4491307 2.94321373,15.9888793 1,15.7662883 C2.69391455,16.835968 4.65671391,17.4027423 6.6601,17.4006883 C13.4551,17.4006883 17.1604,11.8629883 17.1604,7.06328826 L17.1604,6.57098826 C17.8794861,6.06177529 18.5023679,5.42883704 19,4.70168826"/>
  </defs>
  <g fill="none" fill-rule="evenodd">
    <use fill="#FFF" fill-rule="nonzero" xlink:href="#twitter-a"/>
  </g>
</svg>
