<?xml version="1.0" encoding="UTF-8" standalone="no"?>
<svg width="260px" height="92px" viewBox="0 0 260 92" version="1.1" xmlns="http://www.w3.org/2000/svg" xmlns:xlink="http://www.w3.org/1999/xlink">
    <!-- Generator: Sketch 44 (41411) - http://www.bohemiancoding.com/sketch -->
    <title>matmatch_logo_white</title>
    <desc>Created with Sketch.</desc>
    <defs></defs>
    <g id="mockups" stroke="none" stroke-width="1" fill="none" fill-rule="evenodd">
        <g id="matmatch_logo_white" fill="#FFFFFF">
            <g id="matmatch_logo_inverted">
                <g transform="translate(22.000000, 21.000000)">
                    <path d="M10.8226753,26.3408451 L22.0619307,26.3408451 C22.168739,26.6245986 22.2982545,26.8988283 22.4487953,27.1598927 C23.195612,28.4523297 24.4016201,29.3769796 25.8445126,29.7632541 C26.6213254,29.9716574 27.4340212,30.0103129 28.2172817,29.8789403 L33.8276584,39.5873437 C33.3213704,40.2002289 32.9488031,40.9223577 32.7402326,41.6988283 C32.7321029,41.7290804 32.7242535,41.7596126 32.7166844,41.7901448 L17.2252832,41.7901448 L9.47509717,28.3772597 C10.0736158,27.8016294 10.5319662,27.1091924 10.8226753,26.3408451 L10.8226753,26.3408451 Z M24.4958132,19.5273997 C23.366337,20.1789403 22.5132727,21.1865034 22.0594077,22.3935062 L10.8226753,22.3935062 C10.5319662,21.6251588 10.0738962,20.933002 9.47593818,20.3576518 L17.2252832,6.94532689 L32.7197681,6.94532689 C32.8456392,7.45176947 33.0399125,7.9338423 33.3000649,8.38342213 C33.4562124,8.65457059 33.6373098,8.91339412 33.8399932,9.15653137 L28.2312986,18.8638143 C26.9442732,18.6419655 25.6320175,18.8719375 24.4958132,19.5273997 L24.4958132,19.5273997 Z M39.5885757,37.7470076 C39.1134052,37.6198367 38.6244981,37.5562513 38.1364321,37.5562513 C37.8412376,37.5562513 37.5463235,37.5795006 37.2553341,37.6262793 L31.6306603,27.8912653 C33.0724315,26.1133941 33.2910941,23.5747387 32.1344252,21.5727779 C31.9900519,21.3223577 31.8249336,21.0828619 31.6415935,20.8565314 L37.2729953,11.1097527 C38.0727957,11.235523 38.8902572,11.1837022 39.6774425,10.9576518 L47.4265071,24.368016 L39.6808065,37.7727779 C39.6499695,37.7638143 39.6194128,37.7551308 39.5885757,37.7470076 L39.5885757,37.7470076 Z M50.5587081,24.3677359 L42.028065,9.6035902 C42.7594632,8.9013493 43.2797679,8.0223577 43.543845,7.0360832 C43.9304292,5.59378628 43.7319509,4.08818404 42.9854145,2.7965874 C42.2383174,1.50387031 41.0325896,0.57922045 39.5894168,0.19294594 C38.1459635,-0.193608682 36.6394346,0.00471064612 35.3465221,0.751489358 C34.0527687,1.49770784 33.1273775,2.70246975 32.7416343,4.14336611 C32.7335046,4.1733381 32.7256551,4.20387031 32.718086,4.23468263 L15.6593228,4.23468263 L7.12783871,18.9991084 C6.62519516,18.8534501 6.11049714,18.7795006 5.59187441,18.7795006 C2.50845201,18.7795006 0,21.2862233 0,24.3671756 C0,27.448128 2.50845201,29.9545706 5.59187441,29.9545706 C6.10993647,29.9545706 6.62463449,29.8809011 7.12727804,29.7352429 L15.6593228,44.5010692 L32.7189271,44.5010692 C32.8453589,45.0072317 33.0393518,45.4887443 33.2989435,45.9377639 C34.2944188,47.6604529 36.1527702,48.7307611 38.1496079,48.7307611 C39.1251793,48.7307611 40.0892569,48.4722176 40.9375555,47.9828619 C43.6074814,46.4428059 44.5261445,43.0192765 42.9848538,40.350649 C42.7249818,39.9010692 42.404557,39.4923857 42.0291863,39.130481 L50.321263,24.7795006 L50.5587081,24.3677359 Z" id="Fill-1"></path>
                    <path d="M83.597513,28.2119295 L90.8240471,14.000113 L95.1376321,14.000113 L95.1950259,36.1767844 L91.1627556,36.1767844 L91.2113848,20.3095075 L85.3478836,32.3664006 L83.5621719,32.3664006 L81.8471423,32.3662876 L75.9836411,20.309677 L76.0322704,36.1769539 L72,36.1769539 L72.0573938,14 L76.3709788,14 L83.597513,28.2118165 L83.597513,28.2119295 Z M116.792694,23.6517577 L114.729626,23.6517577 L114.729626,20.4970605 L116.88656,20.4970605 L116.88656,15.9055592 L120.762481,15.9055592 L120.762481,20.4970605 L124.388754,20.4970605 L124.388754,23.6517577 L120.762481,23.6517577 L120.762481,29.8362865 C120.762481,32.4598804 122.825549,32.8347603 123.91999,32.8347603 C124.357371,32.8347603 124.638968,32.7723274 124.638968,32.7723274 L124.638968,36.2394716 C124.638968,36.2394716 124.170205,36.3329797 123.419561,36.3329797 C121.200427,36.3329797 116.792694,35.6770106 116.792694,30.3360321 L116.792694,23.6517577 Z M128.076407,20.3720817 L131.014801,20.3720817 L131.014801,22.4648548 C131.014801,23.0894662 130.952318,23.6205695 130.952318,23.6205695 L131.014801,23.6205695 C131.765162,21.777528 133.984296,19.9972018 136.453927,19.9972018 C139.111008,19.9972018 140.674495,21.2153495 141.205741,23.5892118 L141.267941,23.5892118 C142.143268,21.6840199 144.331585,19.9972018 146.895082,19.9972018 C150.458306,19.9972018 152.115376,22.027542 152.115376,26.0568648 L152.115376,36.1769257 L149.083399,36.1769257 L149.083399,26.7125514 C149.083399,24.4949125 148.645453,22.745944 146.26997,22.745944 C144.049987,22.745944 142.393483,24.6200608 141.830571,26.7752668 C141.674505,27.4309534 141.612022,28.1496379 141.612022,28.961548 L141.612022,36.1769257 L138.579761,36.1769257 L138.579761,26.7125514 C138.579761,24.651136 138.267347,22.745944 135.828815,22.745944 C133.515533,22.745944 131.889845,24.651136 131.296399,26.9001326 C131.14005,27.524744 131.108667,28.243146 131.108667,28.961548 L131.108667,36.1769257 L128.076407,36.1769257 L128.076407,20.3720817 Z M164.89851,26.3067376 L165.585823,26.3067376 L165.585823,26.0256483 C165.585823,23.4331296 164.117049,22.5585041 162.116464,22.5585041 C159.677933,22.5585041 157.708731,24.0890987 157.708731,24.0890987 L156.457941,21.8714598 C156.457941,21.8714598 158.740406,19.9970606 162.366679,19.9970606 C166.367849,19.9970606 168.618083,22.1836243 168.618083,26.1818718 L168.618083,36.1767844 L165.80522,36.1767844 L165.80522,34.6775475 C165.80522,33.9591455 165.867703,33.4280422 165.867703,33.4280422 L165.80522,33.4280422 C165.80522,33.4280422 164.523613,36.5516643 160.740991,36.5516643 C158.021428,36.5516643 155.364065,34.8962039 155.364065,31.7415067 C155.364065,26.525394 162.241147,26.3067376 164.89851,26.3067376 Z M161.397486,34.115369 C163.960701,34.115369 165.617488,31.4290597 165.617488,29.086555 L165.617488,28.5868094 L164.836027,28.5868094 C162.553845,28.5868094 158.427709,28.7430329 158.427709,31.5852832 C158.427709,32.8661462 159.427719,34.115369 161.397486,34.115369 Z M173.712733,23.0270333 L171.649665,23.0270333 L171.649665,20.590738 L173.806599,20.590738 L173.806599,16.030312 L176.744994,16.030312 L176.744994,20.590738 L180.558998,20.590738 L180.558998,23.0270333 L176.744994,23.0270333 L176.744994,30.0548298 C176.744994,33.2095271 178.964693,33.6154821 180.121052,33.6154821 C180.558998,33.6154821 180.84003,33.5530493 180.84003,33.5530493 L180.84003,36.2393586 C180.84003,36.2393586 180.402649,36.3017915 179.777537,36.3017915 C177.745569,36.3017915 173.712733,35.6771801 173.712733,30.398352 L173.712733,23.0270333 Z M191.592525,19.9971736 C195.562312,19.9971736 197.53208,22.3086031 197.53208,22.3086031 L196.094124,24.4324514 C196.094124,24.4324514 194.405953,22.62105 191.717208,22.62105 C188.528881,22.62105 186.215599,24.9946299 186.215599,28.2431177 C186.215599,31.4605304 188.528881,33.9281834 191.811073,33.9281834 C194.749468,33.9281834 196.68757,31.8040525 196.68757,31.8040525 L197.906977,34.0216914 C197.906977,34.0216914 195.718661,36.5517773 191.592525,36.5517773 C186.622162,36.5517773 183.121138,33.0222002 183.121138,28.2744754 C183.121138,23.5891836 186.622162,19.9971736 191.592525,19.9971736 Z M201.344444,14.1250635 L204.376704,14.1250635 L204.376704,22.2147842 C204.376704,22.9645439 204.314222,23.5267224 204.314222,23.5267224 L204.376704,23.5267224 C205.064582,21.9961278 207.065167,19.9971453 210.222111,19.9971453 C213.942532,19.9971453 215.66152,22.0274855 215.66152,26.0568083 L215.66152,36.1768692 L212.629259,36.1768692 L212.629259,26.7438526 C212.629259,24.5262137 212.160496,22.7769627 209.628665,22.7769627 C207.252334,22.7769627 205.283414,24.4013479 204.626636,26.6814197 C204.438905,27.3063136 204.376704,28.0247156 204.376704,28.7741928 L204.376704,36.1768692 L201.344444,36.1768692 L201.344444,14.1250635 Z M107.761788,26.056667 L108.293317,26.056667 L108.293317,25.8380107 C108.293317,23.7455201 106.980327,23.0271181 105.229956,23.0271181 C102.947491,23.0271181 100.853606,24.5574301 100.853606,24.5574301 L99.3526014,21.7151798 C99.3526014,21.7151798 101.822233,19.7472725 105.604854,19.7472725 C109.793756,19.7472725 112.231722,22.058702 112.231722,26.0880247 L112.231722,36.0518622 L108.574632,36.0518622 L108.574632,34.7402064 C108.574632,34.1153125 108.636832,33.6155669 108.636832,33.6155669 L108.574632,33.6155669 C108.606014,33.6155669 107.355225,36.426742 103.729518,36.426742 C100.884423,36.426742 98.3212088,34.6464159 98.3212088,31.4603609 C98.3212088,26.4004717 105.167473,26.056667 107.761788,26.056667 Z M104.729527,33.3344776 C106.823978,33.3344776 108.324417,31.085481 108.324417,29.1489314 L108.324417,28.7740516 L107.636822,28.7740516 C105.604854,28.7740516 102.322379,29.0554233 102.322379,31.2730622 C102.322379,32.3349864 103.10384,33.3344776 104.729527,33.3344776 Z" id="Combined-Shape"></path>
                </g>
            </g>
        </g>
    </g>
</svg>